<?xml version="1.0" encoding="utf-8"?>
<!-- Generator: Adobe Illustrator 21.1.0, SVG Export Plug-In . SVG Version: 6.00 Build 0)  -->
<svg version="1.1" id="Layer_1" xmlns="http://www.w3.org/2000/svg" xmlns:xlink="http://www.w3.org/1999/xlink" x="0px" y="0px"
	 viewBox="0 0 763.5 763.5" style="enable-background:new 0 0 763.5 763.5;" xml:space="preserve">
<style type="text/css">
	.st0{fill:#B9F4BC;}
	.st1{fill:#F7434C;}
	.st2{fill:#DB2E37;}
	.st3{fill:#FFDB57;}
	.st4{fill:#F5BA3D;}
	.st5{fill:#EF9325;}
</style>
<circle class="st0" cx="381.7" cy="381.7" r="381.7"/>
<path class="st1" d="M594.9,331.3H168.6c-4.5,0-8.1,3.6-8.1,8.1v250.8c0,4.5,3.6,8.1,8.1,8.1h426.3c4.5,0,8.1-3.6,8.1-8.1V339.4
	C603,334.9,599.4,331.3,594.9,331.3z"/>
<path class="st2" d="M594.9,331.3H168.6c-4.5,0-8.1,3.6-8.1,8.1v32.3H603v-32.3C603,334.9,599.4,331.3,594.9,331.3z"/>
<path class="st3" d="M423,331.3h-82.6c-4.5,0-8.1,3.6-8.1,8.1v250.8c0,4.5,3.6,8.1,8.1,8.1H423c4.5,0,8.1-3.6,8.1-8.1V339.4
	C431.1,334.9,427.5,331.3,423,331.3z"/>
<path class="st4" d="M423,331.3h-82.6c-4.5,0-8.1,3.6-8.1,8.1v32.2h98.8v-32.2C431.1,334.9,427.5,331.3,423,331.3z"/>
<path class="st3" d="M579.2,182c-7.9-20.7-20.4-40.8-33.5-54c-4.8-4.8-11.2-7.3-18.5-7.1c-24.3,0.6-63.8,31-117.6,90.5
	c-1.3,1.5-2.1,3.4-2.1,5.4v42.8c0,4.5,3.6,8.1,8.1,8.1h124.4c27.7,0,39.1-13.5,43.9-24.8C590.1,227.8,588.4,206.2,579.2,182z"/>
<path class="st5" d="M583.8,196.1c-0.2-0.8-0.6-1.6-1.1-2.3c-12.2-18.5-38.6-11.6-58.6-2.5c-58,26.3-82,62.5-83,64
	c-1.6,2.5-1.7,5.7-0.3,8.3c1.4,2.6,4.1,4.2,7.1,4.2h92c17.6,0,30.7-5.4,38.9-16.1C588.5,238.9,590.2,219.7,583.8,196.1z"/>
<path class="st3" d="M353.9,211.4c-53.7-59.5-93.3-90-117.6-90.5c-7.3-0.2-13.8,2.3-18.5,7.1c-13,13.1-25.5,33.3-33.5,54
	c-9.3,24.2-10.9,45.9-4.7,60.9c4.7,11.3,16.1,24.8,43.9,24.8h124.4c4.5,0,8.1-3.6,8.1-8.1v-42.8C356,214.8,355.2,212.9,353.9,211.4z
	"/>
<path class="st5" d="M322.3,255.2c-1-1.5-25-37.7-83-64c-20-9-46.4-15.9-58.6,2.5c-0.5,0.7-0.8,1.5-1.1,2.3
	c-6.4,23.7-4.7,42.9,5,55.5c8.2,10.7,21.2,16.1,38.9,16.1h92c3,0,5.7-1.6,7.1-4.2C324.1,260.9,323.9,257.7,322.3,255.2z"/>
<path class="st4" d="M415.6,200.8h-67.7c-4.5,0-8.1,3.6-8.1,8.1v50.8c0,4.5,3.6,8.1,8.1,8.1h67.7c4.5,0,8.1-3.6,8.1-8.1v-50.8
	C423.7,204.4,420.1,200.8,415.6,200.8z"/>
<path class="st1" d="M629.7,251.5H133.8c-4.5,0-8.1,3.6-8.1,8.1v79.8c0,4.5,3.6,8.1,8.1,8.1h495.8c4.5,0,8.1-3.6,8.1-8.1v-79.8
	C637.7,255.2,634.1,251.5,629.7,251.5z"/>
<rect x="319.6" y="251.5" class="st3" width="124.2" height="95.9"/>
</svg>
