<?xml version="1.0" encoding="utf-8"?>
<!-- Generator: Adobe Illustrator 21.1.0, SVG Export Plug-In . SVG Version: 6.00 Build 0)  -->
<svg version="1.1" id="Layer_1" xmlns="http://www.w3.org/2000/svg" xmlns:xlink="http://www.w3.org/1999/xlink" x="0px" y="0px"
	 viewBox="0 0 103.8 121.2" style="enable-background:new 0 0 103.8 121.2;" xml:space="preserve">
<style type="text/css">
	.st0{fill:#FFFFFF;}
</style>
<g id="_x38_FgmjK.tif">
	<g>
		<path class="st0" d="M103.7,59.3c0,8,0.3,16-0.2,24c-0.2,2.7-1.8,6.3-4,7.8c-14.1,9.8-28.5,19-42.8,28.6c-3.4,2.3-6.3,2.1-9.6-0.1
			C33,110,18.8,100.7,4.6,91.5C1.2,89.3,0,86.6,0,82.8c0.1-16,0.1-32,0-48c0-3.9,1.4-6.5,4.8-8.5C19,18.1,33.1,9.9,47.1,1.5
			c3.6-2.2,6.7-2,10.2,0.1C71.1,10,85,18.2,99,26.2c3.5,2,4.8,4.6,4.7,8.5C103.5,42.9,103.7,51.1,103.7,59.3
			C103.7,59.3,103.7,59.3,103.7,59.3z M97,32.9c-0.8-0.8-1-1.2-1.4-1.5C82,23.4,68.4,15.3,54.6,7.5C53.1,6.6,50.1,7,48.5,8
			c-12.9,7.3-25.6,14.9-38.4,22.4c-1.1,0.6-2,1.5-3.3,2.5c14.6,9.7,28.8,19.1,43,28.3c1.1,0.7,3.3,0.7,4.4,0.1
			C68.4,51.9,82.5,42.5,97,32.9z"/>
	</g>
</g>
</svg>
