<?xml version="1.0" encoding="utf-8"?>
<!-- Generator: Adobe Illustrator 21.1.0, SVG Export Plug-In . SVG Version: 6.00 Build 0)  -->
<svg version="1.1" id="Layer_1" xmlns="http://www.w3.org/2000/svg" xmlns:xlink="http://www.w3.org/1999/xlink" x="0px" y="0px"
	 viewBox="0 0 123.8 123.8" style="enable-background:new 0 0 123.8 123.8;" xml:space="preserve">
<style type="text/css">
	.st0{fill:#FFFFFF;}
</style>
<g id="_x38_FgmjK.tif">
	<g>
		<path class="st0" d="M113.7,60.6c0,8,0.3,16-0.2,24c-0.2,2.7-1.8,6.3-4,7.8c-14.1,9.8-28.5,19-42.8,28.6c-3.4,2.3-6.3,2.1-9.6-0.1
			C43,111.3,28.8,102,14.6,92.8c-3.4-2.2-4.6-4.9-4.6-8.7c0.1-16,0.1-32,0-48c0-3.9,1.4-6.5,4.8-8.5C29,19.4,43.1,11.2,57.1,2.8
			c3.6-2.2,6.7-2,10.2,0.1C81.1,11.3,95,19.5,109,27.5c3.5,2,4.8,4.6,4.7,8.5C113.5,44.2,113.7,52.4,113.7,60.6L113.7,60.6z
			 M107,34.2c-0.8-0.8-1-1.2-1.4-1.5c-13.6-8-27.2-16.1-41-23.9c-1.5-0.9-4.5-0.5-6.1,0.5c-12.9,7.3-25.6,14.9-38.4,22.4
			c-1.1,0.6-2,1.5-3.3,2.5c14.6,9.7,28.8,19.1,43,28.3c1.1,0.7,3.3,0.7,4.4,0.1C78.4,53.2,92.5,43.8,107,34.2z"/>
	</g>
</g>
</svg>
