<?xml version="1.0" encoding="utf-8"?>
<!-- Generator: Adobe Illustrator 21.1.0, SVG Export Plug-In . SVG Version: 6.00 Build 0)  -->
<svg version="1.1" id="Layer_1" xmlns="http://www.w3.org/2000/svg" xmlns:xlink="http://www.w3.org/1999/xlink" x="0px" y="0px"
	 viewBox="0 0 148.4 148.4" style="enable-background:new 0 0 148.4 148.4;" xml:space="preserve">
<style type="text/css">
	.st0{fill:#5533FF;}
	.st1{fill:#FFFFFF;}
</style>
<path class="st0" d="M136.4,148.4H12c-6.6,0-12-5.4-12-12V12C0,5.4,5.4,0,12,0h124.4c6.6,0,12,5.4,12,12v124.4
	C148.4,143,143,148.4,136.4,148.4z"/>
<g id="_x38_FgmjK.tif">
	<g>
		<path class="st1" d="M126,72.9c0,8,0.3,16-0.2,24c-0.2,2.7-1.8,6.3-4,7.8c-14.1,9.8-28.5,19-42.8,28.6c-3.4,2.3-6.3,2.1-9.6-0.1
			c-14.1-9.6-28.3-18.9-42.5-28.1c-3.4-2.2-4.6-4.9-4.6-8.7c0.1-16,0.1-32,0-48c0-3.9,1.4-6.5,4.8-8.5c14.2-8.2,28.3-16.4,42.3-24.8
			c3.6-2.2,6.7-2,10.2,0.1c13.8,8.4,27.7,16.6,41.7,24.6c3.5,2,4.8,4.6,4.7,8.5C125.8,56.5,126,64.7,126,72.9L126,72.9z M119.3,46.5
			c-0.8-0.8-1-1.2-1.4-1.5c-13.6-8-27.2-16.1-41-23.9c-1.5-0.9-4.5-0.5-6.1,0.5C57.9,28.9,45.2,36.5,32.4,44c-1.1,0.6-2,1.5-3.3,2.5
			c14.6,9.7,28.8,19.1,43,28.3c1.1,0.7,3.3,0.7,4.4,0.1C90.7,65.5,104.8,56.1,119.3,46.5z"/>
	</g>
</g>
</svg>
